<?xml version="1.0" encoding="UTF-8"?>
<svg id="Layer_1" data-name="Layer 1" xmlns="http://www.w3.org/2000/svg" viewBox="0 0 360.54 228.21">
  <defs>
    <style>
      .cls-1, .cls-2, .cls-3 {
        stroke-width: 0px;
      }

      .cls-2 {
        fill: #fbb040;
      }

      .cls-3 {
        fill: #be1e2d;
      }
    </style>
  </defs>
  <rect class="cls-2" y="165.58" width="360.12" height="62.63" rx="16.21" ry="16.21"/>
  <g>
    <path class="cls-3" d="m49.87,42.96c3.68,0,6.68-1.14,9-3.42,2.32-2.28,3.48-5.26,3.48-8.94s-1.16-6.68-3.48-9c-2.32-2.32-5.32-3.48-9-3.48s-6.68,1.16-9,3.48-3.48,5.32-3.48,9,1.16,6.66,3.48,8.94c2.32,2.28,5.32,3.42,9,3.42Z"/>
    <path class="cls-3" d="m156.3,117.72c-2.8,0-5.1.92-6.9,2.76-1.8,1.84-2.7,4.16-2.7,6.96s.9,5.08,2.7,6.84c1.8,1.76,4.1,2.64,6.9,2.64s5.12-.88,6.96-2.64c1.84-1.76,2.76-4.04,2.76-6.84s-.92-5.12-2.76-6.96c-1.84-1.84-4.16-2.76-6.96-2.76Z"/>
    <path class="cls-3" d="m186.67,43.68h-23.16v37.44h-53.28c-4,0-6.82-.56-8.46-1.68-1.4-.96-2.26-2.62-2.58-4.99v-30.77h-23.16v43.44c0,6.4-1.04,11.74-3.12,16.02-2.08,4.28-5.16,7.48-9.24,9.6-4.08,2.12-9.12,3.18-15.12,3.18s-10.84-1.06-14.52-3.18c-3.68-2.12-6.34-5.3-7.98-9.54-1.64-4.24-2.46-9.44-2.46-15.6,0-2.08.06-4.12.18-6.12.12-2,.34-4,.66-6l-22.44-4.2c-.48,2.72-.86,5.44-1.14,8.16-.28,2.72-.42,5.44-.42,8.16,0,7.76.98,14.98,2.94,21.66,1.96,6.68,4.92,12.54,8.88,17.58,3.96,5.04,8.96,8.98,15,11.82,6.04,2.84,13.14,4.26,21.3,4.26s15.38-1.42,21.66-4.26c6.28-2.84,11.58-6.78,15.9-11.82,4.32-5.04,7.58-10.94,9.78-17.7.35-1.06.66-2.15.95-3.24,4,1.48,8.46,2.22,13.39,2.22h76.44V43.68Z"/>
    <path class="cls-3" d="m178.14,117.72c-2.8,0-5.1.92-6.9,2.76-1.8,1.84-2.7,4.16-2.7,6.96s.9,5.08,2.7,6.84c1.8,1.76,4.1,2.64,6.9,2.64s5.12-.88,6.96-2.64c1.84-1.76,2.76-4.04,2.76-6.84s-.92-5.12-2.76-6.96c-1.84-1.84-4.16-2.76-6.96-2.76Z"/>
    <path class="cls-3" d="m226.14,31.32c3.68,0,6.68-1.14,9-3.42,2.32-2.28,3.48-5.26,3.48-8.94s-1.16-6.68-3.48-9c-2.32-2.32-5.32-3.48-9-3.48s-6.68,1.16-9,3.48-3.48,5.32-3.48,9,1.16,6.66,3.48,8.94c2.32,2.28,5.32,3.42,9,3.42Z"/>
    <path class="cls-3" d="m299.82,81.12h-48.36s0,0,0,0,0,0,0,0h-13.8v-37.44h-23.16v64.56c0,1.92-.44,3.56-1.32,4.92-.88,1.36-2.46,2.44-4.74,3.24-2.28.8-5.54,1.32-9.78,1.56l4.32,25.56c7.12-.48,13.26-2.22,18.42-5.22s9.16-7.06,12-12.18c2.84-5.12,4.26-11.08,4.26-17.88v-.12h13.8s0,0,0,0,0,0,0,0h71.52V0h-23.16v81.12Z"/>
    <rect class="cls-3" x="337.39" width="23.16" height="108.12"/>
  </g>
  <g>
    <path class="cls-1" d="m58.97,196.58c0-1.24-.23-2.37-.69-3.39-.46-1.02-1.1-1.9-1.92-2.64-.82-.74-1.78-1.3-2.9-1.7-1.11-.39-2.32-.58-3.65-.58-1.14,0-2.26.16-3.38.46-1.11.31-2.17.78-3.16,1.4l1.44,3.15c.66-.3,1.43-.55,2.32-.76.89-.21,1.8-.31,2.75-.31,1.2,0,2.23.18,3.09.55s1.52.88,1.97,1.53c.45.65.67,1.42.67,2.29v3.96h-17.46c-.56,0-1.09-.04-1.58-.12-.49-.08-.91-.18-1.25-.3-.34-.12-.58-.25-.72-.39l-2.4,2.79c.73.71,1.66,1.22,2.77,1.54.81.3,1.49.56,2.01.78.67.29,1.16.57,1.47.86.31.28.46.62.46,1.02,0,.64-.36,1.24-1.08,1.8-.72.56-1.75,1.01-3.09,1.35-1.34.34-2.96.51-4.86.51-3.16,0-5.52-.56-7.08-1.68-1.56-1.12-2.34-2.81-2.34-5.07,0-.4.02-.87.08-1.4.05-.53.12-1.16.23-1.9l-3.18-.63c-.16.74-.28,1.45-.36,2.13-.08.68-.12,1.34-.12,1.98,0,2.28.51,4.2,1.53,5.76,1.02,1.56,2.5,2.74,4.44,3.53,1.94.79,4.26,1.18,6.96,1.18,1.42,0,2.75-.11,3.99-.33,1.24-.22,2.37-.54,3.39-.96,1.02-.42,1.89-.94,2.62-1.56.73-.62,1.29-1.32,1.69-2.1.4-.78.6-1.65.6-2.61,0-.87-.17-1.61-.49-2.25h17.8l.66-3.93h-1.26v-3.96Z"/>
    <path class="cls-1" d="m74.9,207.95c-.56,0-1.02.17-1.38.52s-.54.8-.54,1.37.18.99.54,1.37c.36.37.82.55,1.38.55s.99-.19,1.37-.55c.37-.37.55-.83.55-1.37s-.19-1.02-.55-1.37c-.37-.35-.83-.52-1.37-.52Z"/>
    <path class="cls-1" d="m79.31,207.95c-.54,0-.99.17-1.35.52s-.54.8-.54,1.37.18.99.54,1.37c.36.37.81.55,1.35.55s1.02-.19,1.38-.55c.36-.37.54-.83.54-1.37s-.18-1.02-.54-1.37-.82-.52-1.38-.52Z"/>
    <path class="cls-1" d="m115.67,200.54h-5.19c-.82,0-1.45-.07-1.88-.2-.43-.13-.72-.38-.85-.74-.14-.36-.21-.88-.21-1.56v-8.28h-3.42v8.28c0,.9-.26,1.57-.78,2.01-.52.44-1.1.66-1.74.66-.54,0-1.05-.15-1.52-.46-.43-.28-.72-.69-.89-1.2.02-.26.04-.52.04-.8v-7.02h-3.42v6.81c0,.9-.26,1.57-.78,2.01-.52.44-1.1.66-1.74.66-.54,0-1.05-.15-1.53-.46-.46-.3-.76-.72-.91-1.27.02-.3.04-.61.04-.93v-5.31h-3.42v5.31c0,.68-.07,1.2-.21,1.56-.14.36-.42.61-.84.74s-1.05.2-1.89.2h-2.73c-.82,0-1.44-.07-1.86-.2s-.71-.38-.85-.74c-.15-.36-.23-.88-.23-1.56v-8.28h-3.42v8.28c0,.68-.07,1.2-.21,1.56-.14.36-.42.61-.84.74-.42.13-1.05.2-1.89.2h-1.56s0,0,0,0c0,0,0,0,0,0h-3.51v-21.03h-3.42v24.96h6.93s0,0,0,0,0,0,0,0h1.56c1.46,0,2.65-.24,3.58-.72.4-.21.75-.47,1.07-.76.32.3.67.56,1.08.76.94.48,2.13.72,3.57.72h2.73c1.46,0,2.66-.24,3.59-.72.63-.32,1.14-.77,1.55-1.3.06.07.11.15.17.22.54.62,1.16,1.08,1.86,1.37.7.29,1.41.43,2.13.43.9,0,1.76-.22,2.58-.67.6-.33,1.12-.79,1.57-1.37.06.08.12.17.19.24.55.62,1.17,1.08,1.86,1.37s1.4.43,2.12.43c.92,0,1.79-.22,2.61-.67.39-.22.75-.49,1.08-.82.32.3.67.56,1.08.77.94.48,2.13.72,3.57.72h8.61v-24.96h-3.42v21.03Z"/>
    <rect class="cls-1" x="123.23" y="179.51" width="3.42" height="24.96"/>
    <path class="cls-1" d="m173.96,185.39c.54,0,.99-.18,1.35-.54.36-.36.54-.81.54-1.35,0-.58-.18-1.04-.54-1.4-.36-.35-.81-.52-1.35-.52s-1.02.17-1.38.52c-.36.35-.54.82-.54,1.4,0,.54.18.99.54,1.35.36.36.82.54,1.38.54Z"/>
    <path class="cls-1" d="m169.52,185.39c.54,0,.99-.18,1.36-.54.37-.36.56-.81.56-1.35,0-.58-.19-1.04-.56-1.4-.37-.35-.83-.52-1.36-.52s-1.02.17-1.38.52c-.36.35-.54.82-.54,1.4,0,.54.18.99.54,1.35.36.36.82.54,1.38.54Z"/>
    <path class="cls-1" d="m187.82,185.87c.64,0,1.17-.21,1.58-.62.41-.41.61-.92.61-1.54s-.21-1.13-.61-1.54c-.41-.41-.94-.62-1.58-.62-.6,0-1.11.21-1.53.62s-.63.92-.63,1.54.21,1.13.63,1.54.93.62,1.53.62Z"/>
    <path class="cls-1" d="m197.72,200.54h-5.19c-.82,0-1.44-.07-1.86-.2s-.71-.38-.85-.74c-.15-.36-.23-.88-.23-1.56v-8.28h-3.42v8.28c0,.68-.07,1.2-.21,1.56-.14.36-.42.61-.84.74-.42.13-1.05.2-1.89.2h-1.56c-1,0-1.95-.03-2.83-.08-.58-.03-1.12-.09-1.66-.15.3-.31.58-.64.82-.99.67-.99,1.01-2.17,1.01-3.53s-.33-2.59-.99-3.63-1.54-1.85-2.62-2.43c-1.09-.58-2.31-.87-3.65-.87s-2.56.29-3.66.88-1.98,1.4-2.62,2.43c-.65,1.03-.97,2.23-.97,3.58,0,1.5.42,2.81,1.27,3.92.18.23.38.45.59.67-.48.05-.97.09-1.49.11-.97.05-2,.08-3.08.08h-1.2c-.82,0-1.45-.07-1.88-.2-.43-.13-.72-.38-.86-.74-.14-.36-.21-.88-.21-1.56v-18.54h-3.42v20.13c0,1.5-.25,2.78-.76,3.84-.51,1.06-1.24,1.87-2.18,2.43-.94.56-2.06.84-3.36.84s-2.39-.28-3.33-.84c-.94-.56-1.66-1.37-2.15-2.43-.49-1.06-.73-2.34-.73-3.84,0-.72.05-1.44.15-2.17.1-.73.24-1.49.42-2.26l-3.27-.63c-.22.8-.4,1.64-.52,2.51-.13.87-.19,1.73-.19,2.59,0,1.6.22,3.07.67,4.39.45,1.33,1.1,2.49,1.95,3.48.85.99,1.86,1.76,3.04,2.31,1.18.55,2.51.83,3.99.83s2.81-.28,4.01-.83c1.19-.55,2.2-1.32,3.04-2.31.84-.99,1.49-2.16,1.95-3.5.03-.09.05-.19.08-.29.94.47,2.12.71,3.55.71h1.2c1.62,0,3.25-.08,4.89-.24,1.64-.16,3.2-.44,4.68-.84.13-.03.25-.08.37-.11.94.28,1.95.5,3.05.68,2.1.34,4.4.51,6.9.51h1.56c1.46,0,2.65-.24,3.58-.72.4-.21.75-.47,1.07-.76.32.3.67.56,1.08.76.94.48,2.13.72,3.57.72h8.61v-24.96h-3.42v21.03Zm-29.31-6.24c.32-.52.77-.93,1.35-1.23.58-.3,1.24-.45,1.98-.45s1.42.15,2,.45c.57.3,1.01.71,1.33,1.23.32.52.48,1.12.48,1.8,0,.76-.27,1.45-.81,2.07s-1.33,1.17-2.38,1.63c-.18.08-.39.16-.59.23-.15-.06-.32-.11-.46-.17-1.11-.47-1.95-1.03-2.52-1.68-.57-.65-.85-1.35-.85-2.12,0-.66.16-1.25.48-1.77Z"/>
    <rect class="cls-1" x="205.28" y="179.51" width="3.42" height="24.96"/>
    <path class="cls-1" d="m228.32,188.87c-1.1,0-2.13.2-3.09.6-.96.4-1.81.96-2.55,1.68-.74.72-1.32,1.56-1.72,2.52-.41.96-.62,2.01-.62,3.15,0,1.38.33,2.66.99,3.83s1.58,2.1,2.76,2.79c1.18.69,2.57,1.04,4.17,1.04h2.55v1.2c0,1.02-.27,1.77-.81,2.26s-1.44.74-2.7.74h-5.73v3.9h5.73c1.42,0,2.65-.27,3.69-.81,1.04-.54,1.84-1.33,2.4-2.36s.84-2.27.84-3.73v-15.21c-.8-.4-1.71-.77-2.73-1.1-1.02-.33-2.08-.49-3.18-.49Zm-.06,11.79c-.92,0-1.71-.17-2.38-.51-.67-.34-1.19-.8-1.56-1.38s-.55-1.23-.55-1.95c0-.78.2-1.48.6-2.1.4-.62.94-1.11,1.63-1.49.69-.37,1.46-.55,2.33-.55.76,0,1.6.17,2.49.47v7.52h-2.55Z"/>
    <path class="cls-1" d="m255.46,188.96c.54,0,1-.18,1.37-.54.37-.36.55-.81.55-1.35,0-.58-.18-1.04-.55-1.39s-.83-.53-1.37-.53-1.02.18-1.38.53-.54.82-.54,1.39c0,.54.18.99.54,1.35.36.36.82.54,1.38.54Z"/>
    <path class="cls-1" d="m259.91,188.96c.54,0,.99-.18,1.35-.54.36-.36.54-.81.54-1.35,0-.58-.18-1.04-.54-1.39s-.81-.53-1.35-.53-1.02.18-1.38.53c-.36.35-.54.82-.54,1.39,0,.54.18.99.54,1.35s.82.54,1.38.54Z"/>
    <path class="cls-1" d="m266.32,200.54h-11.73c-1.22,0-2.25-.17-3.09-.51-.84-.34-1.47-.84-1.89-1.51s-.63-1.5-.63-2.47c0-.6.09-1.25.27-1.95s.46-1.43.84-2.19l-2.76-1.26c-.58.88-1.02,1.82-1.3,2.8-.29.99-.44,1.98-.44,2.96,0,1.06.18,2.07.54,3.03.36.96.91,1.82,1.65,2.58.74.76,1.68,1.36,2.82,1.8,1.14.44,2.48.66,4.02.66h15.12v-14.7h-3.42v10.77Z"/>
    <path class="cls-1" d="m311.17,196.58c0-1.24-.23-2.37-.69-3.39-.46-1.02-1.1-1.9-1.92-2.64-.82-.74-1.79-1.3-2.9-1.7-1.11-.39-2.33-.58-3.64-.58-1.14,0-2.27.16-3.38.46-1.11.31-2.17.78-3.17,1.4l1.44,3.15c.66-.3,1.44-.55,2.33-.76s1.8-.31,2.75-.31c1.2,0,2.23.18,3.09.55.86.37,1.52.88,1.96,1.53.45.65.68,1.42.68,2.29v3.96h-13.23s0,0,0,0,0,0,0,0h-.6c-.84,0-1.47-.07-1.89-.2-.42-.13-.7-.38-.84-.74-.14-.36-.21-.88-.21-1.56v-18.54h-3.45v18.54c0,.68-.07,1.2-.21,1.56-.14.36-.42.61-.84.74s-1.05.2-1.89.2h-2.73v-14.25h-3.42v14.25h-4.23v3.93h10.38c1.46,0,2.66-.24,3.6-.72.4-.21.75-.46,1.07-.75.31.29.66.55,1.06.75.94.48,2.14.72,3.6.72h.6s0,0,0,0,0,0,0,0h17.28l.66-3.93h-1.26v-3.96Z"/>
    <path class="cls-1" d="m339.67,179.51v21.03h-4.62c-.82,0-1.44-.07-1.88-.2-.43-.13-.71-.38-.85-.74-.14-.36-.21-.88-.21-1.56v-18.54h-3.42v18.54c0,.68-.08,1.2-.23,1.56-.15.36-.43.61-.84.74s-1.04.2-1.91.2h-4.59v-10.77h-3.42v15.9c0,.72-.12,1.32-.38,1.8s-.67.83-1.25,1.04-1.36.31-2.34.31l.63,3.75c1.42-.04,2.62-.33,3.62-.88s1.76-1.33,2.31-2.35c.55-1.02.83-2.24.83-3.66v-1.2h4.59c1.46,0,2.66-.24,3.6-.72.41-.21.76-.47,1.08-.76.31.3.66.56,1.07.76.93.48,2.12.72,3.58.72h8.04v-24.96h-3.42Z"/>
  </g>
</svg>